HIERARCHY
ROOT Hips
{
 OFFSET 0.000000 0.000000 0.000000
 CHANNELS 6 Xposition Yposition Zposition Yrotation Xrotation Zrotation
 JOINT Chest
 {
  OFFSET 0.000000 16.280000 -0.014500
  CHANNELS 3 Yrotation Xrotation Zrotation
  JOINT Chest2
  {
   OFFSET 0.000000 10.601900 0.029500
   CHANNELS 3 Yrotation Xrotation Zrotation
   JOINT Chest3
   {
    OFFSET 0.000000 10.554800 0.000000
    CHANNELS 3 Yrotation Xrotation Zrotation
    JOINT Chest4
    {
     OFFSET 0.000000 10.544000 0.000000
     CHANNELS 3 Yrotation Xrotation Zrotation
     JOINT Neck
     {
      OFFSET 0.000000 16.186500 0.000000
      CHANNELS 3 Yrotation Xrotation Zrotation
      JOINT Head
      {
       OFFSET 0.000000 9.876700 0.062400
       CHANNELS 3 Yrotation Xrotation Zrotation
       End Site
       {
        OFFSET 0.000000 18.635100 0.032900
       }
      }
     }
     JOINT RightCollar
     {
      OFFSET -3.550000 10.761000 0.000000
      CHANNELS 3 Yrotation Xrotation Zrotation
      JOINT RightShoulder
      {
       OFFSET -16.915100 0.000000 0.000000
       CHANNELS 3 Yrotation Xrotation Zrotation
       JOINT RightElbow
       {
        OFFSET 0.000000 -31.241900 0.000000
        CHANNELS 3 Yrotation Xrotation Zrotation
        JOINT RightWrist
        {
         OFFSET 0.000000 -25.690800 0.013700
         CHANNELS 3 Yrotation Xrotation Zrotation
         End Site
         {
          OFFSET 0.000000 -19.336200 0.000000
         }
        }
       }
      }
     }
     JOINT LeftCollar
     {
      OFFSET 3.550000 10.761000 0.000000
      CHANNELS 3 Yrotation Xrotation Zrotation
      JOINT LeftShoulder
      {
       OFFSET 16.915100 0.000000 0.000000
       CHANNELS 3 Yrotation Xrotation Zrotation
       JOINT LeftElbow
       {
        OFFSET 0.000000 -31.241900 0.000000
        CHANNELS 3 Yrotation Xrotation Zrotation
        JOINT LeftWrist
        {
         OFFSET 0.000000 -25.690800 0.013700
         CHANNELS 3 Yrotation Xrotation Zrotation
         End Site
         {
          OFFSET 0.000000 -19.336200 0.000000
         }
        }
       }
      }
     }
    }
   }
  }
 }
 JOINT RightHip
 {
  OFFSET -13.350800 0.071600 0.007200
  CHANNELS 3 Yrotation Xrotation Zrotation
  JOINT RightKnee
  {
   OFFSET 0.000000 -49.946400 0.002700
   CHANNELS 3 Yrotation Xrotation Zrotation
   JOINT RightAnkle
   {
    OFFSET 0.000000 -42.233900 0.021900
    CHANNELS 3 Yrotation Xrotation Zrotation
    JOINT RightToe
    {
     OFFSET 0.000000 -11.862800 19.724700
     CHANNELS 3 Yrotation Xrotation Zrotation
     End Site
     {
      OFFSET 0.000000 -1.715400 7.529500
     }
    }
   }
  }
 }
 JOINT LeftHip
 {
  OFFSET 13.350800 0.071600 0.007200
  CHANNELS 3 Yrotation Xrotation Zrotation
  JOINT LeftKnee
  {
   OFFSET 0.000000 -49.946400 0.002700
   CHANNELS 3 Yrotation Xrotation Zrotation
   JOINT LeftAnkle
   {
    OFFSET 0.000000 -42.233900 0.021900
    CHANNELS 3 Yrotation Xrotation Zrotation
    JOINT LeftToe
    {
     OFFSET 0.000000 -11.862800 19.724700
     CHANNELS 3 Yrotation Xrotation Zrotation
     End Site
     {
      OFFSET 0.000000 -1.715400 7.529500
     }
    }
   }
  }
 }
}
MOTION
Frames: 9
Frame Time: 0.008333
54.166424 131.807785 38.799894 178.883609 -41.114916 -0.700854 0.075389 26.895184 1.716924 -0.045451 4.609164 0.283352 -0.068464 7.315080 0.438829 0.002952 21.967679 1.384271 -1.875372 40.187377 -2.380419 -1.648213 22.550309 -2.363878 9.660718 6.110661 -1.930866 14.542658 -35.085445 -16.333380 -148.343177 -56.362990 174.326478 -16.401794 -0.854183 -23.149400 -5.756398 14.940713 2.995381 -11.387958 -42.477317 1.884437 173.841276 -51.377448 170.581680 6.248796 5.565194 18.331399 1.002728 -31.811228 -5.059134 -168.594934 69.809159 -161.743183 -1.025935 -32.800343 -2.871332 -0.003557 0.001601 -0.002139 -6.958031 -29.215307 3.722859 159.513946 71.108672 155.026988 -0.342870 -35.198382 -3.238784 0.000827 0.005350 0.000497
54.165385 131.809049 38.800653 178.886761 -41.129566 -0.689902 0.069163 26.904933 1.708132 -0.042914 4.603167 0.287665 -0.067787 7.318287 0.440175 -0.000876 21.966805 1.382503 -1.832396 40.179710 -2.343327 -1.685183 22.566717 -2.370639 9.649731 6.110390 -1.921714 14.560855 -35.091058 -16.348920 -148.336083 -56.376518 174.321669 -16.392772 -0.862949 -23.155035 -5.741845 14.937169 3.001607 -11.398401 -42.497247 1.921784 173.868623 -51.387585 170.588701 6.292356 5.568930 18.315171 1.010451 -31.796824 -5.069964 -168.576831 69.806908 -161.726984 -1.026430 -32.798875 -2.869607 -0.002042 0.000850 -0.001228 -6.949910 -29.205214 3.710772 159.507469 71.106803 155.019830 -0.352182 -35.192585 -3.237722 0.001298 0.002070 0.000781
54.166500 131.808074 38.804216 178.887847 -41.132640 -0.685154 0.067917 26.902159 1.707320 -0.040822 4.596849 0.291553 -0.062679 7.307690 0.447456 -0.015181 21.986117 1.370389 -1.822669 40.176973 -2.334283 -1.659927 22.567273 -2.353609 9.645653 6.103688 -1.909369 14.578390 -35.097871 -16.365454 -148.343340 -56.384309 174.328337 -16.381816 -0.863070 -23.162547 -5.725180 14.925110 3.017078 -11.391126 -42.528820 1.956859 173.845690 -51.405457 170.631345 6.313191 5.564862 18.287081 1.015257 -31.798377 -5.071860 -168.572583 69.803373 -161.722615 -1.030436 -32.795599 -2.868721 -0.001937 -0.000244 -0.001165 -6.945118 -29.206700 3.710140 159.503507 71.104840 155.014412 -0.362481 -35.190278 -3.230943 -0.000114 0.001370 -0.000069
54.168590 131.807412 38.807637 178.889192 -41.137697 -0.684027 0.072156 26.890509 1.718918 -0.044466 4.599464 0.288691 -0.065373 7.318155 0.441387 -0.007466 21.973697 1.378174 -1.824993 40.185411 -2.331548 -1.608620 22.545050 -2.314653 9.646598 6.091068 -1.893879 14.578946 -35.075017 -16.379121 -148.370955 -56.380043 174.350514 -16.371337 -0.856078 -23.164657 -5.717418 14.918698 3.026762 -11.377979 -42.554736 1.972218 173.908134 -51.387464 170.593382 6.307170 5.558761 18.262241 1.007036 -31.795541 -5.062158 -168.553027 69.802252 -161.712415 -1.035367 -32.795229 -2.865135 -0.001946 0.001045 -0.001170 -6.943101 -29.204747 3.712477 159.514820 71.103612 155.028174 -0.366411 -35.191326 -3.230927 0.000815 0.001662 0.000490
54.169763 131.807618 38.810199 178.891643 -41.147796 -0.680455 0.068949 26.894578 1.717370 -0.043712 4.589533 0.293734 -0.065753 7.319528 0.441994 -0.008904 21.971636 1.381633 -1.815865 40.186529 -2.320709 -1.598994 22.538680 -2.305070 9.641314 6.101118 -1.895832 14.583680 -35.074833 -16.386605 -148.401701 -56.372519 174.377260 -16.363033 -0.842796 -23.156180 -5.707768 14.912168 3.029160 -11.364537 -42.584855 1.987906 173.952950 -51.374338 170.570126 6.315466 5.566380 18.263770 1.006926 -31.786181 -5.063831 -168.539127 69.800367 -161.701393 -1.031599 -32.795661 -2.868321 -0.003098 0.001391 -0.001863 -6.939271 -29.197036 3.710319 159.521709 71.102419 155.032865 -0.372332 -35.193010 -3.224798 -0.000732 0.002093 -0.000440
54.170980 131.808132 38.812641 178.894868 -41.159577 -0.677643 0.066867 26.880073 1.728279 -0.046248 4.599968 0.288489 -0.063607 7.297593 0.453090 -0.017481 21.986382 1.374378 -1.806353 40.186009 -2.311526 -1.598356 22.543615 -2.300129 9.634284 6.116539 -1.896481 14.606305 -35.089187 -16.406128 -148.418741 -56.373660 174.383848 -16.313320 -0.830292 -23.114705 -5.701233 14.909066 3.024982 -11.359535 -42.615445 2.011214 174.002178 -51.366329 170.549798 6.299696 5.572637 18.257259 1.007561 -31.774573 -5.067947 -168.532920 69.799014 -161.695607 -1.024751 -32.795370 -2.875610 -0.004394 0.001831 -0.002642 -6.933664 -29.187272 3.706230 159.529303 71.105266 155.042478 -0.373359 -35.191380 -3.222768 -0.000475 0.002912 -0.000286
54.170054 131.809748 38.813966 178.894634 -41.177512 -0.665053 0.062897 26.880567 1.727485 -0.047257 4.601903 0.286613 -0.064322 7.295426 0.453697 -0.014011 21.962743 1.390540 -1.812733 40.203906 -2.316599 -1.613795 22.560116 -2.307042 9.623518 6.139338 -1.905356 14.620493 -35.095895 -16.416029 -148.437417 -56.379589 174.398504 -16.313670 -0.813780 -23.117425 -5.706928 14.922212 3.011994 -11.362439 -42.647844 2.037699 174.080672 -51.355081 170.517260 6.279265 5.583487 18.239667 1.016254 -31.756898 -5.080850 -168.525248 69.796226 -161.689180 -1.023353 -32.796840 -2.875547 -0.004524 0.001652 -0.002721 -6.917438 -29.171260 3.692003 159.510584 71.102866 155.024168 -0.385634 -35.189855 -3.214865 -0.000802 0.001967 -0.000482
54.170367 131.810136 38.816936 178.896150 -41.189157 -0.658327 0.061234 26.876923 1.728862 -0.047726 4.600232 0.287016 -0.065104 7.292855 0.454284 -0.016061 21.959688 1.392428 -1.774758 40.174168 -2.278259 -1.627293 22.580423 -2.305584 9.618874 6.127774 -1.899796 14.633266 -35.094311 -16.429737 -148.439517 -56.379500 174.401560 -16.312723 -0.792978 -23.127726 -5.704101 14.915500 3.011988 -11.369384 -42.649838 2.046598 174.197756 -51.318723 170.439866 6.256446 5.596390 18.216736 1.019296 -31.748085 -5.085803 -168.523069 69.791913 -161.690147 -1.024727 -32.797936 -2.875518 -0.005748 0.000873 -0.003457 -6.903249 -29.162194 3.683047 159.499019 71.101588 155.017372 -0.393948 -35.188704 -3.209777 -0.000190 0.003349 -0.000114
54.172043 131.809753 38.821053 178.897589 -41.196998 -0.656949 0.062362 26.872646 1.733551 -0.047870 4.593511 0.289466 -0.067464 7.301124 0.450424 -0.015179 21.951194 1.396009 -1.758752 40.161618 -2.263892 -1.613853 22.576398 -2.290429 9.613530 6.135658 -1.897055 14.654007 -35.119024 -16.449209 -148.462193 -56.363470 174.415767 -16.297039 -0.761078 -23.132759 -5.706518 14.905605 3.010012 -11.378230 -42.649861 2.064913 174.244377 -51.312731 170.422847 6.188582 5.585986 18.187025 1.016613 -31.743194 -5.081545 -168.506529 69.789629 -161.679213 -1.023309 -32.797679 -2.874656 -0.006764 0.002122 -0.004068 -6.891233 -29.157698 3.679505 159.497225 71.100631 155.024594 -0.397085 -35.187690 -3.208933 0.000769 0.005470 0.000462
